<svg width="45" height="45" viewBox="0 0 45 45" fill="none" xmlns="http://www.w3.org/2000/svg">
<g filter="url(#filter0_d_199_16)">
<path d="M20.7337 1.85746L16.2384 10.1393C15.7959 10.9544 15.0014 11.519 14.0862 11.6688L4.91336 13.1697C2.47512 13.5686 1.53736 16.5789 3.31764 18.292L10.0655 24.7853C10.7677 25.461 11.0979 26.4356 10.9511 27.3989L9.48865 36.9974C9.11431 39.4543 11.7185 41.2749 13.8974 40.0795L22.0452 35.6094C22.8788 35.1521 23.8797 35.1169 24.7432 35.5147L33.5917 39.59C35.8363 40.6239 38.2982 38.6525 37.78 36.2361L35.8746 27.3508C35.6741 26.4155 35.9316 25.4406 36.5678 24.7263L42.4493 18.1234C44.0061 16.3758 43.0511 13.598 40.7489 13.1769L32.6158 11.6896C31.7229 11.5263 30.9519 10.9675 30.5189 10.1697L26.007 1.85746C24.8716 -0.23433 21.8692 -0.234332 20.7337 1.85746Z" fill="url(#paint0_linear_199_16)"/>
</g>
<defs>
<filter id="filter0_d_199_16" x="0.694791" y="0.28862" width="44.2172" height="43.8673" filterUnits="userSpaceOnUse" color-interpolation-filters="sRGB">
<feFlood flood-opacity="0" result="BackgroundImageFix"/>
<feColorMatrix in="SourceAlpha" type="matrix" values="0 0 0 0 0 0 0 0 0 0 0 0 0 0 0 0 0 0 127 0" result="hardAlpha"/>
<feOffset dy="2"/>
<feGaussianBlur stdDeviation="0.85"/>
<feComposite in2="hardAlpha" operator="out"/>
<feColorMatrix type="matrix" values="0 0 0 0 1 0 0 0 0 0.66 0 0 0 0 0 0 0 0 0.25 0"/>
<feBlend mode="normal" in2="BackgroundImageFix" result="effect1_dropShadow_199_16"/>
<feBlend mode="normal" in="SourceGraphic" in2="effect1_dropShadow_199_16" result="shape"/>
</filter>
<linearGradient id="paint0_linear_199_16" x1="7.86793" y1="4.21569" x2="52.0576" y2="47.6623" gradientUnits="userSpaceOnUse">
<stop stop-color="#FBFF4E"/>
<stop offset="1" stop-color="#E89E5B"/>
</linearGradient>
</defs>
</svg>

